<mxfile host="65bd71144e">
    <diagram id="4P1XQo7u9u3tAOibduNe" name="Page-1">
        <mxGraphModel dx="809" dy="1732" grid="1" gridSize="10" guides="1" tooltips="1" connect="1" arrows="1" fold="1" page="1" pageScale="1" pageWidth="827" pageHeight="1169" math="0" shadow="0">
            <root>
                <mxCell id="0"/>
                <mxCell id="1" parent="0"/>
                <mxCell id="2" value="Réveille" style="rounded=1;whiteSpace=wrap;html=1;" parent="1" vertex="1">
                    <mxGeometry x="354" y="-90" width="120" height="60" as="geometry"/>
                </mxCell>
                <mxCell id="17" style="edgeStyle=none;html=1;entryX=0.5;entryY=0;entryDx=0;entryDy=0;" parent="1" source="7" target="15" edge="1">
                    <mxGeometry relative="1" as="geometry">
                        <mxPoint x="414" y="310" as="targetPoint"/>
                    </mxGeometry>
                </mxCell>
                <mxCell id="18" style="edgeStyle=none;html=1;entryX=0;entryY=0.5;entryDx=0;entryDy=0;" parent="1" source="7" target="16" edge="1">
                    <mxGeometry relative="1" as="geometry"/>
                </mxCell>
                <mxCell id="19" style="edgeStyle=none;html=1;entryX=1;entryY=0.5;entryDx=0;entryDy=0;" parent="1" source="7" target="14" edge="1">
                    <mxGeometry relative="1" as="geometry"/>
                </mxCell>
                <mxCell id="7" value="&lt;span&gt;1ere pièce&lt;/span&gt;&lt;br&gt;&lt;span&gt;LA CHAMBRE&lt;/span&gt;" style="rhombus;whiteSpace=wrap;html=1;" parent="1" vertex="1">
                    <mxGeometry x="348" y="170" width="130" height="130" as="geometry"/>
                </mxCell>
                <mxCell id="25" style="edgeStyle=none;html=1;entryX=1;entryY=0.5;entryDx=0;entryDy=0;" parent="1" source="11" target="24" edge="1">
                    <mxGeometry relative="1" as="geometry"/>
                </mxCell>
                <mxCell id="26" style="edgeStyle=none;html=1;entryX=0.5;entryY=0;entryDx=0;entryDy=0;" parent="1" source="11" target="23" edge="1">
                    <mxGeometry relative="1" as="geometry"/>
                </mxCell>
                <mxCell id="11" value="&lt;span&gt;2eme pièce&amp;nbsp;&lt;/span&gt;&lt;br&gt;&lt;span&gt;LA CUISINE&lt;/span&gt;" style="rhombus;whiteSpace=wrap;html=1;" parent="1" vertex="1">
                    <mxGeometry x="349" y="455" width="130" height="130" as="geometry"/>
                </mxCell>
                <mxCell id="33" style="edgeStyle=none;html=1;entryX=1;entryY=0.5;entryDx=0;entryDy=0;" parent="1" source="12" target="32" edge="1">
                    <mxGeometry relative="1" as="geometry"/>
                </mxCell>
                <mxCell id="34" style="edgeStyle=none;html=1;entryX=1;entryY=0.5;entryDx=0;entryDy=0;" parent="1" source="12" target="30" edge="1">
                    <mxGeometry relative="1" as="geometry">
                        <Array as="points">
                            <mxPoint x="414" y="1040"/>
                            <mxPoint x="340" y="1040"/>
                            <mxPoint x="280" y="1040"/>
                        </Array>
                    </mxGeometry>
                </mxCell>
                <mxCell id="35" style="edgeStyle=none;html=1;entryX=-0.008;entryY=0.617;entryDx=0;entryDy=0;entryPerimeter=0;" parent="1" source="12" target="31" edge="1">
                    <mxGeometry relative="1" as="geometry"/>
                </mxCell>
                <mxCell id="36" style="edgeStyle=none;html=1;entryX=0;entryY=0.5;entryDx=0;entryDy=0;" parent="1" source="12" target="29" edge="1">
                    <mxGeometry relative="1" as="geometry">
                        <Array as="points">
                            <mxPoint x="420" y="1040"/>
                        </Array>
                    </mxGeometry>
                </mxCell>
                <mxCell id="12" value="&lt;span&gt;3eme pièce&lt;/span&gt;&lt;br&gt;&lt;span&gt;L'ESCALIER&lt;/span&gt;" style="rhombus;whiteSpace=wrap;html=1;" parent="1" vertex="1">
                    <mxGeometry x="349" y="860" width="130" height="130" as="geometry"/>
                </mxCell>
                <mxCell id="43" style="edgeStyle=none;html=1;entryX=1.008;entryY=0.617;entryDx=0;entryDy=0;entryPerimeter=0;" parent="1" source="13" target="42" edge="1">
                    <mxGeometry relative="1" as="geometry"/>
                </mxCell>
                <mxCell id="44" style="edgeStyle=none;html=1;entryX=0;entryY=0.5;entryDx=0;entryDy=0;" parent="1" source="13" target="41" edge="1">
                    <mxGeometry relative="1" as="geometry"/>
                </mxCell>
                <mxCell id="45" style="edgeStyle=none;html=1;entryX=0.5;entryY=0;entryDx=0;entryDy=0;" parent="1" source="13" target="40" edge="1">
                    <mxGeometry relative="1" as="geometry"/>
                </mxCell>
                <mxCell id="13" value="&lt;span&gt;4eme et finale pièce&lt;/span&gt;&lt;br&gt;&lt;span&gt;LE GARAGE&lt;/span&gt;" style="rhombus;whiteSpace=wrap;html=1;" parent="1" vertex="1">
                    <mxGeometry x="349" y="1110" width="130" height="130" as="geometry"/>
                </mxCell>
                <mxCell id="22" style="edgeStyle=none;html=1;entryX=0;entryY=0.5;entryDx=0;entryDy=0;" parent="1" source="14" target="2" edge="1">
                    <mxGeometry relative="1" as="geometry">
                        <mxPoint x="190" y="-60" as="targetPoint"/>
                        <Array as="points">
                            <mxPoint x="40" y="235"/>
                            <mxPoint x="40" y="-60"/>
                        </Array>
                    </mxGeometry>
                </mxCell>
                <mxCell id="14" value="Meurt empoisonné" style="rounded=1;whiteSpace=wrap;html=1;" parent="1" vertex="1">
                    <mxGeometry x="120" y="205" width="120" height="60" as="geometry"/>
                </mxCell>
                <mxCell id="20" style="edgeStyle=none;html=1;entryX=0.5;entryY=0;entryDx=0;entryDy=0;" parent="1" source="15" target="11" edge="1">
                    <mxGeometry relative="1" as="geometry"/>
                </mxCell>
                <mxCell id="15" value="Il réussi, tu le tires avec ton arme à feu" style="rounded=1;whiteSpace=wrap;html=1;" parent="1" vertex="1">
                    <mxGeometry x="351" y="360" width="124" height="60" as="geometry"/>
                </mxCell>
                <mxCell id="21" style="edgeStyle=none;html=1;entryX=1;entryY=0.5;entryDx=0;entryDy=0;" parent="1" source="16" target="2" edge="1">
                    <mxGeometry relative="1" as="geometry">
                        <mxPoint x="660" y="-60" as="targetPoint"/>
                        <Array as="points">
                            <mxPoint x="800" y="235"/>
                            <mxPoint x="800" y="-60"/>
                        </Array>
                    </mxGeometry>
                </mxCell>
                <mxCell id="16" value="Il meurt, il n' y a pas l'antidote dans la trousse médical" style="rounded=1;whiteSpace=wrap;html=1;" parent="1" vertex="1">
                    <mxGeometry x="604" y="205" width="120" height="60" as="geometry"/>
                </mxCell>
                <mxCell id="28" style="edgeStyle=none;html=1;entryX=0.5;entryY=0;entryDx=0;entryDy=0;" parent="1" source="23" target="12" edge="1">
                    <mxGeometry relative="1" as="geometry">
                        <mxPoint x="560" y="810" as="targetPoint"/>
                        <Array as="points">
                            <mxPoint x="414" y="770"/>
                            <mxPoint x="414" y="820"/>
                        </Array>
                    </mxGeometry>
                </mxCell>
                <mxCell id="23" value="Réussi, il a retenu sa respiration" style="rounded=1;whiteSpace=wrap;html=1;" parent="1" vertex="1">
                    <mxGeometry x="354" y="670" width="120" height="60" as="geometry"/>
                </mxCell>
                <mxCell id="27" style="edgeStyle=none;html=1;" parent="1" source="24" edge="1">
                    <mxGeometry relative="1" as="geometry">
                        <mxPoint x="350" y="-60" as="targetPoint"/>
                        <Array as="points">
                            <mxPoint x="40" y="520"/>
                            <mxPoint x="40" y="-60"/>
                        </Array>
                    </mxGeometry>
                </mxCell>
                <mxCell id="24" value="Il meurt par un shock nerveux. Dans le corridor s'y trouvait sa plus grande peur" style="rounded=1;whiteSpace=wrap;html=1;" parent="1" vertex="1">
                    <mxGeometry x="120" y="485" width="120" height="70" as="geometry"/>
                </mxCell>
                <mxCell id="46" style="edgeStyle=none;html=1;entryX=0.5;entryY=0;entryDx=0;entryDy=0;" parent="1" source="29" target="13" edge="1">
                    <mxGeometry relative="1" as="geometry">
                        <mxPoint x="410" y="1070" as="targetPoint"/>
                        <Array as="points">
                            <mxPoint x="680" y="1090"/>
                            <mxPoint x="414" y="1090"/>
                        </Array>
                    </mxGeometry>
                </mxCell>
                <mxCell id="29" value="Réussi, il a été bien agile!" style="rounded=1;whiteSpace=wrap;html=1;" parent="1" vertex="1">
                    <mxGeometry x="620" y="1010" width="120" height="60" as="geometry"/>
                </mxCell>
                <mxCell id="39" style="edgeStyle=none;html=1;" parent="1" source="30" edge="1">
                    <mxGeometry relative="1" as="geometry">
                        <mxPoint x="40" y="640" as="targetPoint"/>
                        <Array as="points">
                            <mxPoint x="40" y="1040"/>
                            <mxPoint x="40" y="930"/>
                        </Array>
                    </mxGeometry>
                </mxCell>
                <mxCell id="30" value="Il meurt, la nouvelle variante ne laisse pas de chance" style="rounded=1;whiteSpace=wrap;html=1;" parent="1" vertex="1">
                    <mxGeometry x="80" y="1010" width="130" height="60" as="geometry"/>
                </mxCell>
                <mxCell id="37" style="edgeStyle=none;html=1;exitX=0.695;exitY=0.017;exitDx=0;exitDy=0;exitPerimeter=0;" parent="1" source="31" edge="1">
                    <mxGeometry relative="1" as="geometry">
                        <mxPoint x="480" y="-60" as="targetPoint"/>
                        <Array as="points">
                            <mxPoint x="757" y="800"/>
                            <mxPoint x="757" y="50"/>
                            <mxPoint x="757" y="-60"/>
                        </Array>
                    </mxGeometry>
                </mxCell>
                <mxCell id="31" value="Meurt, sa lampe de poche n'a plus de batterie et il se foule une cheville, incapable de bouger il mourra de faim" style="rounded=1;whiteSpace=wrap;html=1;" parent="1" vertex="1">
                    <mxGeometry x="638.75" y="880" width="170" height="70" as="geometry"/>
                </mxCell>
                <mxCell id="38" style="edgeStyle=none;html=1;exitX=0;exitY=0.5;exitDx=0;exitDy=0;" parent="1" source="32" edge="1">
                    <mxGeometry relative="1" as="geometry">
                        <mxPoint x="40" y="490" as="targetPoint"/>
                        <Array as="points">
                            <mxPoint x="40" y="925"/>
                        </Array>
                        <mxPoint x="40" y="940" as="sourcePoint"/>
                    </mxGeometry>
                </mxCell>
                <mxCell id="32" value="Meurt, en se coupant il a eu le tétanos, le diable n'était même pas au rendez-vous..." style="rounded=1;whiteSpace=wrap;html=1;" parent="1" vertex="1">
                    <mxGeometry x="60" y="885" width="140" height="80" as="geometry"/>
                </mxCell>
                <mxCell id="50" style="edgeStyle=none;html=1;" parent="1" source="40" edge="1">
                    <mxGeometry relative="1" as="geometry">
                        <mxPoint x="490" y="-60" as="targetPoint"/>
                        <Array as="points">
                            <mxPoint x="920" y="1340"/>
                            <mxPoint x="920" y="-60"/>
                        </Array>
                    </mxGeometry>
                </mxCell>
                <mxCell id="40" value="Il meurt, il s'est étouffer avec la canelle" style="rounded=1;whiteSpace=wrap;html=1;" parent="1" vertex="1">
                    <mxGeometry x="354" y="1310" width="120" height="60" as="geometry"/>
                </mxCell>
                <mxCell id="49" style="edgeStyle=none;html=1;exitX=0.577;exitY=-0.035;exitDx=0;exitDy=0;exitPerimeter=0;" parent="1" source="41" edge="1">
                    <mxGeometry relative="1" as="geometry">
                        <mxPoint x="480" y="-60" as="targetPoint"/>
                        <Array as="points">
                            <mxPoint x="840" y="1005"/>
                            <mxPoint x="830" y="-60"/>
                        </Array>
                    </mxGeometry>
                </mxCell>
                <mxCell id="41" value="Ilnmeurt, un clown psychopathe l'attendait derrière" style="rounded=1;whiteSpace=wrap;html=1;" parent="1" vertex="1">
                    <mxGeometry x="760" y="1130" width="140" height="90" as="geometry"/>
                </mxCell>
                <mxCell id="48" style="edgeStyle=none;html=1;" parent="1" source="42" edge="1">
                    <mxGeometry relative="1" as="geometry">
                        <mxPoint x="350" y="1470" as="targetPoint"/>
                        <Array as="points">
                            <mxPoint x="170" y="1470"/>
                        </Array>
                    </mxGeometry>
                </mxCell>
                <mxCell id="42" value="Réussi, il a dit &quot;au revoir&quot; à sa vie, puis a traversé sans que rien ne lui arrive" style="rounded=1;whiteSpace=wrap;html=1;" parent="1" vertex="1">
                    <mxGeometry x="110" y="1140" width="120" height="60" as="geometry"/>
                </mxCell>
                <mxCell id="47" value="Bravo! Vous l'avez aider à s'enfuire de ce cauchemar!" style="rounded=1;whiteSpace=wrap;html=1;" parent="1" vertex="1">
                    <mxGeometry x="354" y="1440" width="120" height="60" as="geometry"/>
                </mxCell>
                <mxCell id="52" value="&lt;span&gt;Porte A :&lt;/span&gt;&lt;br&gt;&lt;span&gt;&amp;nbsp;Boire le contenu de la petite bouteille&lt;/span&gt;" style="text;html=1;strokeColor=none;fillColor=none;align=center;verticalAlign=middle;whiteSpace=wrap;rounded=0;" parent="1" vertex="1">
                    <mxGeometry x="242.5" y="175" width="120" height="30" as="geometry"/>
                </mxCell>
                <mxCell id="53" value="&lt;span&gt;Porte B :&lt;/span&gt;&lt;br&gt;&lt;span&gt;Traverser un corridor rempli de serpents venimeux&lt;/span&gt;" style="text;html=1;strokeColor=none;fillColor=none;align=center;verticalAlign=middle;whiteSpace=wrap;rounded=0;" parent="1" vertex="1">
                    <mxGeometry x="487" y="175" width="110" height="30" as="geometry"/>
                </mxCell>
                <mxCell id="54" value="&lt;span&gt;Porte C :&lt;/span&gt;&lt;br&gt;&lt;span&gt;Il y a peut-être un ours derrière&lt;/span&gt;" style="text;html=1;strokeColor=none;fillColor=none;align=center;verticalAlign=middle;whiteSpace=wrap;rounded=0;" parent="1" vertex="1">
                    <mxGeometry x="420" y="310" width="100" height="30" as="geometry"/>
                </mxCell>
                <mxCell id="55" value="&lt;span&gt;Porte A :&lt;/span&gt;&lt;br&gt;&lt;span&gt;N'est pas peur, prend cette porte&amp;nbsp;&lt;/span&gt;" style="text;html=1;strokeColor=none;fillColor=none;align=center;verticalAlign=middle;whiteSpace=wrap;rounded=0;" parent="1" vertex="1">
                    <mxGeometry x="250" y="470" width="100" height="30" as="geometry"/>
                </mxCell>
                <mxCell id="56" value="&lt;span&gt;Porte B :&lt;/span&gt;&lt;br&gt;&lt;span&gt;&amp;nbsp;Traverser un corridor rempli de gaz mortels&lt;/span&gt;" style="text;html=1;strokeColor=none;fillColor=none;align=center;verticalAlign=middle;whiteSpace=wrap;rounded=0;" parent="1" vertex="1">
                    <mxGeometry x="280" y="610" width="117.5" height="30" as="geometry"/>
                </mxCell>
                <mxCell id="57" value="&lt;span style=&quot;font-family: &amp;#34;helvetica&amp;#34;&quot;&gt;Porte A :&lt;/span&gt;&lt;br style=&quot;font-family: &amp;#34;helvetica&amp;#34;&quot;&gt;&lt;span style=&quot;font-family: &amp;#34;helvetica&amp;#34;&quot;&gt;&amp;nbsp;Fait un pacte de sang avec le diable&lt;/span&gt;" style="text;html=1;strokeColor=none;fillColor=none;align=center;verticalAlign=middle;whiteSpace=wrap;rounded=0;rotation=0;" parent="1" vertex="1">
                    <mxGeometry x="230" y="880" width="110" height="30" as="geometry"/>
                </mxCell>
                <mxCell id="58" value="&lt;span&gt;Porte B :&lt;/span&gt;&lt;br&gt;&lt;span&gt;J'espère que tu n'as pas peur du noir&amp;nbsp;&lt;/span&gt;" style="text;html=1;strokeColor=none;fillColor=none;align=center;verticalAlign=middle;whiteSpace=wrap;rounded=0;" parent="1" vertex="1">
                    <mxGeometry x="490" y="880" width="114" height="30" as="geometry"/>
                </mxCell>
                <mxCell id="59" value="&lt;span&gt;Porte C :&lt;/span&gt;&lt;br&gt;&lt;span&gt;Couloir contaminer d'une nouvelle variante de Covid-19&lt;/span&gt;" style="text;html=1;strokeColor=none;fillColor=none;align=center;verticalAlign=middle;whiteSpace=wrap;rounded=0;" parent="1" vertex="1">
                    <mxGeometry x="240" y="980" width="120" height="30" as="geometry"/>
                </mxCell>
                <mxCell id="60" value="&lt;span&gt;Porte D :&lt;/span&gt;&lt;br&gt;&lt;span&gt;Corridor rempli de rayons laser&lt;/span&gt;" style="text;html=1;strokeColor=none;fillColor=none;align=center;verticalAlign=middle;whiteSpace=wrap;rounded=0;" parent="1" vertex="1">
                    <mxGeometry x="470" y="990" width="130" height="30" as="geometry"/>
                </mxCell>
                <mxCell id="61" value="&lt;span&gt;Porte A :&lt;/span&gt;&lt;br&gt;&lt;span&gt;Dit au revoir à ta vie&lt;/span&gt;" style="text;html=1;strokeColor=none;fillColor=none;align=center;verticalAlign=middle;whiteSpace=wrap;rounded=0;" parent="1" vertex="1">
                    <mxGeometry x="242.5" y="1130" width="115" height="30" as="geometry"/>
                </mxCell>
                <mxCell id="62" value="&lt;span&gt;Porte B (la porte de garage) :&lt;/span&gt;&lt;br&gt;&lt;span&gt;&amp;nbsp;Rien de plus facile que sortir par une grosse porte;)&lt;/span&gt;" style="text;html=1;strokeColor=none;fillColor=none;align=center;verticalAlign=middle;whiteSpace=wrap;rounded=0;" parent="1" vertex="1">
                    <mxGeometry x="550" y="1120" width="160" height="30" as="geometry"/>
                </mxCell>
                <mxCell id="63" value="&lt;span&gt;Porte C :&lt;/span&gt;&lt;br&gt;&lt;span&gt;Prend une cuillère de canelle&lt;/span&gt;" style="text;html=1;strokeColor=none;fillColor=none;align=center;verticalAlign=middle;whiteSpace=wrap;rounded=0;" parent="1" vertex="1">
                    <mxGeometry x="414.5" y="1250" width="111" height="30" as="geometry"/>
                </mxCell>
                <mxCell id="65" value="Genre: Horreur&lt;br&gt;Inspiration: Escape room&lt;br&gt;Nom: Les portes de l'enfer&amp;nbsp;" style="text;html=1;strokeColor=none;fillColor=none;align=center;verticalAlign=middle;whiteSpace=wrap;rounded=0;" parent="1" vertex="1">
                    <mxGeometry x="349" y="-160" width="138" height="30" as="geometry"/>
                </mxCell>
                <mxCell id="71" style="edgeStyle=none;html=1;exitX=0;exitY=0.5;exitDx=0;exitDy=0;entryX=1;entryY=0.5;entryDx=0;entryDy=0;" parent="1" source="67" target="70" edge="1">
                    <mxGeometry relative="1" as="geometry"/>
                </mxCell>
                <mxCell id="72" style="edgeStyle=none;html=1;exitX=1;exitY=0.5;exitDx=0;exitDy=0;entryX=0;entryY=0.5;entryDx=0;entryDy=0;" parent="1" source="67" target="69" edge="1">
                    <mxGeometry relative="1" as="geometry"/>
                </mxCell>
                <mxCell id="67" value="Prend-t-il un arme à feu?" style="rhombus;whiteSpace=wrap;html=1;" parent="1" vertex="1">
                    <mxGeometry x="334" y="-10" width="160" height="140" as="geometry"/>
                </mxCell>
                <mxCell id="68" value="" style="edgeStyle=none;html=1;entryX=0.5;entryY=0;entryDx=0;entryDy=0;endArrow=none;" parent="1" source="2" target="67" edge="1">
                    <mxGeometry relative="1" as="geometry">
                        <mxPoint x="413.86956521739125" y="-30" as="sourcePoint"/>
                        <mxPoint x="413" y="170" as="targetPoint"/>
                    </mxGeometry>
                </mxCell>
                <mxCell id="76" style="edgeStyle=none;html=1;entryX=1;entryY=0.5;entryDx=0;entryDy=0;" parent="1" source="69" target="11" edge="1">
                    <mxGeometry relative="1" as="geometry">
                        <mxPoint x="510" y="510" as="targetPoint"/>
                        <Array as="points">
                            <mxPoint x="650" y="140"/>
                            <mxPoint x="740" y="140"/>
                            <mxPoint x="740" y="520"/>
                        </Array>
                    </mxGeometry>
                </mxCell>
                <mxCell id="69" value="Vous êtes courageux, en choissant cette option vous passez directement à la deuxième pièce!&amp;nbsp;" style="rounded=1;whiteSpace=wrap;html=1;" parent="1" vertex="1">
                    <mxGeometry x="574" y="15" width="150" height="90" as="geometry"/>
                </mxCell>
                <mxCell id="75" style="edgeStyle=none;html=1;entryX=0.5;entryY=0;entryDx=0;entryDy=0;" parent="1" source="70" target="7" edge="1">
                    <mxGeometry relative="1" as="geometry">
                        <mxPoint x="413" y="150" as="targetPoint"/>
                        <Array as="points">
                            <mxPoint x="160" y="140"/>
                            <mxPoint x="413" y="140"/>
                        </Array>
                    </mxGeometry>
                </mxCell>
                <mxCell id="70" value="Il va avoir le droit à une 1 seule munition" style="rounded=1;whiteSpace=wrap;html=1;" parent="1" vertex="1">
                    <mxGeometry x="100" y="30" width="120" height="60" as="geometry"/>
                </mxCell>
                <mxCell id="73" value="Oui" style="text;html=1;strokeColor=none;fillColor=none;align=center;verticalAlign=middle;whiteSpace=wrap;rounded=0;" parent="1" vertex="1">
                    <mxGeometry x="250" y="30" width="60" height="30" as="geometry"/>
                </mxCell>
                <mxCell id="74" value="Non" style="text;html=1;strokeColor=none;fillColor=none;align=center;verticalAlign=middle;whiteSpace=wrap;rounded=0;" parent="1" vertex="1">
                    <mxGeometry x="500" y="30" width="60" height="30" as="geometry"/>
                </mxCell>
            </root>
        </mxGraphModel>
    </diagram>
</mxfile>